{"title":"The Conjuring-2 (2016)HQ 1080p Blu-ray x264 Dolby ATMOS 7.1 DDR","uid":15728206,"size":14236798045,"categoryP":"video","categoryS":"hd___movies","magnet":"?xt=urn:btih:f7cd040dd02ef3cb2f1f45a61a4f95a771c87928&amp;dn=The+Conjuring-2+%282016%29HQ+1080p+Blu-ray+x264+Dolby+ATMOS+7.1+DDR&amp;tr=udp%3A%2F%2Ftracker.leechers-paradise.org%3A6969&amp;tr=udp%3A%2F%2Fzer0day.ch%3A1337&amp;tr=udp%3A%2F%2Fopen.demonii.com%3A1337&amp;tr=udp%3A%2F%2Ftracker.coppersurfer.tk%3A6969&amp;tr=udp%3A%2F%2Fexodus.desync.com%3A6969","seeders":11,"leechers":17,"uploader":"SaM","files":3,"time":1472746293,"description":"- HollyWooD Movie-\r\n\r\nThe Conjuring\r\n- 2 -\r\n** 2016 **\r\nHD 1080p / Blu-ray / x264\r\nEnglish Dolby ATMOS 7.1\r\nEnglish, French, Portugeuse &amp; Spanish Subs\r\n\r\nForced &amp; Hearing Impaired subs included\r\n \nhttp://extraimago.com/image/wyJE \nhttp://extraimago.com/image/wyJ1 \nhttp://extraimago.com/image/wyJ7 \nhttp://extraimago.com/image/wyJn \nhttp://extraimago.com/image/wyJj \nhttp://extraimago.com/image/wyJN \nhttp://extraimago.com/image/wyJ2 \nhttp://extraimago.com/image/wyJw \nhttp://extraimago.com/image/wyJa \nhttp://extraimago.com/image/wyJ8 \nhttp://extraimago.com/image/wy0f \nhttp://extraimago.com/image/wy0W \nhttp://extraimago.com/image/wy0A \nhttp://extraimago.com/image/wy0v \nhttp://extraimago.com/image/wy0u\r\n\r\nSOURCE: BD50 @ HDC\r\n\r\nFile size : 13.2 GiB\r\nDuration : 2 h 13 min\r\nOverall bit rate mode : Variable\r\nOverall bit rate : 14.1 Mb/s\r\n\r\nVideo\r\nFormat : AVC\r\nFormat/Info : Advanced Video Codec\r\nFormat profile :   \r\nFormat settings, CABAC : Yes\r\nFormat settings, ReFrames : 5 frames\r\nCodec ID : V_MPEG4/ISO/AVC\r\nDuration : 2 h 13 min\r\nBit rate : 10 000 kb/s\r\nWidth : 1 920 pixels\r\nHeight : 800 pixels\r\nDisplay aspect ratio : 2.40:1\r\nFrame rate mode : Constant\r\nFrame rate : 23.976 (24000/1001) FPS\r\ncolor space : YUV\r\nChroma subsampling : 4:2:0\r\nBit depth : 8 bits\r\nScan type : Progressive\r\nBits/(Pixel*Frame) : 0.272\r\nStream size : 9.35 GiB (71%)\r\n\r\nAudio\r\nFormat : Atmos / TrueHD\r\nCodec ID : A_TRUEHD\r\nDuration : 2 h 13 min\r\nBit rate mode : Variable\r\nBit rate : 3 987 kb/s\r\nMaximum bit rate : 8 076 kb/s\r\nChannel(s) : Object Based / 8 channels\r\nChannel positions : Object Based / Front: L C R, Side: L R, Back: L R, LFE\r\nSampling rate : / 48.0 kHz\r\nFrame rate : 1 200.000 FPS (40 spf)\r\nCompression mode : Lossless\r\nStream size : 3.73 GiB (28%)\r\nLanguage : English\r\nDefault : Yes\r\nForced : No\r\n\r\nChapters = Yes\r\nSample : Included","torrent":{"xt":"urn:btih:f7cd040dd02ef3cb2f1f45a61a4f95a771c87928","amp;dn":"The+Conjuring-2+%282016%29HQ+1080p+Blu-ray+x264+Dolby+ATMOS+7.1+DDR","amp;tr":["udp%3A%2F%2Ftracker.leechers-paradise.org%3A6969","udp%3A%2F%2Fzer0day.ch%3A1337","udp%3A%2F%2Fopen.demonii.com%3A1337","udp%3A%2F%2Ftracker.coppersurfer.tk%3A6969","udp%3A%2F%2Fexodus.desync.com%3A6969"],"infoHash":"f7cd040dd02ef3cb2f1f45a61a4f95a771c87928","infoHashBuffer":{"type":"Buffer","data":[247,205,4,13,208,46,243,203,47,31,69,166,26,79,149,167,113,200,121,40]},"announce":[],"urlList":[]}}